<?xml version="1.0" encoding="UTF-8"?>
<!-- Created with Inkscape (http://www.inkscape.org/) -->
<svg width="7.1014mm" height="18.584mm" version="1.1" viewBox="0 0 7.1014 18.584" xmlns="http://www.w3.org/2000/svg">
 <g transform="translate(-22.6 -39.028)">
  <path d="m26.579 46.256c-0.02117-0.127 0-0.13758 0.0635-0.20108 1.143-1.0689 2.0108-2.413 2.0108-4.0322 0-0.92075-0.254-1.8309-0.68791-2.4659-0.15875-0.23283-0.43392-0.52916-0.55033-0.52916-0.14817 0-0.47625 0.27517-0.68791 0.508-0.78316 0.86783-1.0372 2.1907-1.0372 3.2914 0 0.61383 0.07408 1.3017 0.14817 1.7357 0.02117 0.127 0.03175 0.14817-0.09525 0.254-1.524 1.2594-3.1432 2.7728-3.1432 4.9107 0 1.8415 1.2594 3.5877 3.8523 3.5877 0.24342 0 0.51858-0.02117 0.73025-0.0635 0.11642-0.02117 0.13758-0.03175 0.15875 0.09525 0.127 0.70908 0.28575 1.6298 0.28575 2.1272 0 1.5663-1.0583 1.7568-1.6827 1.7568-0.5715 0-0.84666-0.16933-0.84666-0.30692 0-0.07408 0.09525-0.10583 0.33867-0.17992 0.32808-0.09525 0.70908-0.381 0.70908-0.99483 0-0.58208-0.37042-1.0795-1.016-1.0795-0.70908 0-1.1324 0.56092-1.1324 1.2171 0 0.68792 0.41275 1.7251 2.0108 1.7251 0.70908 0 2.0849-0.3175 2.0849-2.1167 0-0.60325-0.1905-1.6087-0.30692-2.2648-0.02117-0.127-0.01058-0.11642 0.13758-0.17992 1.0689-0.42333 1.778-1.3229 1.778-2.5188 0-1.3547-0.99483-2.5506-2.5506-2.5506-0.27516 0-0.27516 0-0.30692-0.1905zm0.99483-5.588c0.34925 0 0.635 0.28575 0.635 0.86783 0 1.1747-1.0054 2.1272-1.8415 2.8575-0.07408 0.0635-0.11642 0.05292-0.13758-0.08467-0.04233-0.27516-0.0635-0.635-0.0635-0.97366 0-1.651 0.762-2.667 1.4076-2.667zm-1.1536 7.2072c0.03175 0.20108 0.03175 0.1905-0.15875 0.254-0.93133 0.3175-1.5346 1.1536-1.5346 2.0532 0 0.9525 0.49742 1.6298 1.2171 1.8732 0.08467 0.03175 0.21167 0.0635 0.28575 0.0635 0.08467 0 0.127-0.05292 0.127-0.11642 0-0.07408-0.08467-0.10583-0.15875-0.13758-0.4445-0.1905-0.762-0.64558-0.762-1.1324 0-0.60325 0.41275-1.0583 1.0583-1.2382 0.16933-0.04233 0.1905-0.03175 0.21167 0.08467l0.52916 3.1538c0.02117 0.11642 0.01058 0.11642-0.14817 0.14817-0.16933 0.03175-0.381 0.05292-0.59266 0.05292-1.8521 0-3.048-1.0266-3.048-2.4977 0-0.62442 0.10583-1.4605 0.98425-2.4553 0.635-0.70908 1.1218-1.1007 1.6192-1.5028 0.10583-0.08467 0.127-0.07408 0.14817 0.04233zm0.73025 1.6827c-0.02117-0.127-0.01058-0.15875 0.11642-0.14817 0.85725 0.07408 1.5663 0.79375 1.5663 1.7251 0 0.66675-0.40216 1.2065-0.99483 1.5028-0.127 0.0635-0.14817 0.0635-0.16933-0.0635z" stroke-width=".26458"/>
 </g>
</svg>
