<?xml version="1.0" encoding="UTF-8"?>
<!-- Created with Inkscape (http://www.inkscape.org/) -->
<svg width="7.2919mm" height="9.4932mm" version="1.1" viewBox="0 0 7.2919 9.4932" xmlns="http://www.w3.org/2000/svg">
 <g transform="translate(-115.57 -95.172)">
  <path d="m118.29 95.172c-1.8415 0-2.667 1.3441-2.667 2.3601 0 0.84666 0.4445 1.5769 1.3017 1.5769 0.66675 0 1.1218-0.46566 1.1218-1.1218 0-0.67733-0.49741-1.1007-1.016-1.1007-0.28575 0-0.39159 0.07408-0.52917 0.07408s-0.16933-0.08467-0.16933-0.1905c0-0.42333 0.635-1.1959 1.7145-1.1959 1.1218 0 1.6087 1.1007 1.6087 2.7622 0 2.9527-1.4605 4.6037-3.9264 6.0113-0.0952 0.0529-0.15875 0.10583-0.15875 0.1905 0 0.0635 0.0423 0.127 0.13758 0.127 0.0529 0 0.11642-0.0212 0.17992-0.0529 2.6035-1.27 5.3552-3.1538 5.3552-6.3712 0-1.8415-1.1218-3.0692-2.9527-3.0692zm3.9899 0.86783c-0.32808 0-0.58208 0.254-0.58208 0.58208 0 0.32808 0.254 0.58208 0.58208 0.58208 0.32809 0 0.58208-0.254 0.58208-0.58208 0-0.32808-0.25399-0.58208-0.58208-0.58208zm0.0106 2.6564c-0.32808 0-0.57149 0.24342-0.57149 0.5715 0 0.32808 0.24341 0.5715 0.57149 0.5715s0.5715-0.24342 0.5715-0.5715c0-0.32808-0.24342-0.5715-0.5715-0.5715z" stroke-width=".26458"/>
 </g>
</svg>
